[Header]
FileType HTR
DataType HTRS
FileVersion 1
NumSegments 64
NumFrames 4
DataFrameRate 30
EulerRotationOrder ZYX
CalibrationUnits mm
RotationUnits Degrees
GlobalAxisofGravity Y
BoneLengthAxis Y
ScaleFactor 1.0
[SegmentNames&Hierarchy]
Hips	GLOBAL
Spine	Hips
Spine1	Spine
Spine2	Spine1
Neck	Spine2
Head	Neck
LeftEye	Head
RightEye	Head
LeftShoulder	Spine2
LeftArm	LeftShoulder
LeftForeArm	LeftArm
LeftHand	LeftForeArm
LeftHandThumb1	LeftHand
LeftHandThumb2	LeftHandThumb1
LeftHandThumb3	LeftHandThumb2
LeftHandThumb4	LeftHandThumb3
LeftHandIndex1	LeftHand
LeftHandIndex2	LeftHandIndex1
LeftHandIndex3	LeftHandIndex2
LeftHandIndex4	LeftHandIndex3
LeftHandMiddle1	LeftHand
LeftHandMiddle2	LeftHandMiddle1
LeftHandMiddle3	LeftHandMiddle2
LeftHandMiddle4	LeftHandMiddle3
LeftHandRing1	LeftHand
LeftHandRing2	LeftHandRing1
LeftHandRing3	LeftHandRing2
LeftHandRing4	LeftHandRing3
LeftHandPinky1	LeftHand
LeftHandPinky2	LeftHandPinky1
LeftHandPinky3	LeftHandPinky2
LeftHandPinky4	LeftHandPinky3
RightShoulder	Spine2
RightArm	RightShoulder
RightForeArm	RightArm
RightHand	RightForeArm
RightHandPinky1	RightHand
RightHandPinky2	RightHandPinky1
RightHandPinky3	RightHandPinky2
RightHandPinky4	RightHandPinky3
RightHandRing1	RightHand
RightHandRing2	RightHandRing1
RightHandRing3	RightHandRing2
RightHandRing4	RightHandRing3
RightHandMiddle1	RightHand
RightHandMiddle2	RightHandMiddle1
RightHandMiddle3	RightHandMiddle2
RightHandMiddle4	RightHandMiddle3
RightHandIndex1	RightHand
RightHandIndex2	RightHandIndex1
RightHandIndex3	RightHandIndex2
RightHandIndex4	RightHandIndex3
RightHandThumb1	RightHand
RightHandThumb2	RightHandThumb1
RightHandThumb3	RightHandThumb2
RightHandThumb4	RightHandThumb3
LeftUpLeg	Hips
LeftLeg	LeftUpLeg
LeftFoot	LeftLeg
LeftToeBase	LeftFoot
RightUpLeg	Hips
RightLeg	RightUpLeg
RightFoot	RightLeg
RightToeBase	RightFoot
[BasePosition]
Hips	0	0	0	0	0	0	1
Spine	0	0	0	0	0	0	1
Spine1	0	0	0	0	0	0	1
Spine2	0	0	0	0	0	0	1
Neck	0	0	0	0	0	0	1
Head	0	0	0	0	0	0	1
LeftEye	0	0	0	0	0	0	1
RightEye	0	0	0	0	0	0	1
LeftShoulder	0	0	0	0	0	0	1
LeftArm	0	0	0	0	0	0	1
LeftForeArm	0	0	0	0	0	0	1
LeftHand	0	0	0	0	0	0	1
LeftHandThumb1	0	0	0	0	0	0	1
LeftHandThumb2	0	0	0	0	0	0	1
LeftHandThumb3	0	0	0	0	0	0	1
LeftHandThumb4	0	0	0	0	0	0	1
LeftHandIndex1	0	0	0	0	0	0	1
LeftHandIndex2	0	0	0	0	0	0	1
LeftHandIndex3	0	0	0	0	0	0	1
LeftHandIndex4	0	0	0	0	0	0	1
LeftHandMiddle1	0	0	0	0	0	0	1
LeftHandMiddle2	0	0	0	0	0	0	1
LeftHandMiddle3	0	0	0	0	0	0	1
LeftHandMiddle4	0	0	0	0	0	0	1
LeftHandRing1	0	0	0	0	0	0	1
LeftHandRing2	0	0	0	0	0	0	1
LeftHandRing3	0	0	0	0	0	0	1
LeftHandRing4	0	0	0	0	0	0	1
LeftHandPinky1	0	0	0	0	0	0	1
LeftHandPinky2	0	0	0	0	0	0	1
LeftHandPinky3	0	0	0	0	0	0	1
LeftHandPinky4	0	0	0	0	0	0	1
RightShoulder	0	0	0	0	0	0	1
RightArm	0	0	0	0	0	0	1
RightForeArm	0	0	0	0	0	0	1
RightHand	0	0	0	0	0	0	1
RightHandPinky1	0	0	0	0	0	0	1
RightHandPinky2	0	0	0	0	0	0	1
RightHandPinky3	0	0	0	0	0	0	1
RightHandPinky4	0	0	0	0	0	0	1
RightHandRing1	0	0	0	0	0	0	1
RightHandRing2	0	0	0	0	0	0	1
RightHandRing3	0	0	0	0	0	0	1
RightHandRing4	0	0	0	0	0	0	1
RightHandMiddle1	0	0	0	0	0	0	1
RightHandMiddle2	0	0	0	0	0	0	1
RightHandMiddle3	0	0	0	0	0	0	1
RightHandMiddle4	0	0	0	0	0	0	1
RightHandIndex1	0	0	0	0	0	0	1
RightHandIndex2	0	0	0	0	0	0	1
RightHandIndex3	0	0	0	0	0	0	1
RightHandIndex4	0	0	0	0	0	0	1
RightHandThumb1	0	0	0	0	0	0	1
RightHandThumb2	0	0	0	0	0	0	1
RightHandThumb3	0	0	0	0	0	0	1
RightHandThumb4	0	0	0	0	0	0	1
LeftUpLeg	0	0	0	0	0	0	1
LeftLeg	0	0	0	0	0	0	1
LeftFoot	0	0	0	0	0	0	1
LeftToeBase	0	0	0	0	0	0	1
RightUpLeg	0	0	0	0	0	0	1
RightLeg	0	0	0	0	0	0	1
RightFoot	0	0	0	0	0	0	1
RightToeBase	0	0	0	0	0	0	1
[Hips]
46	9.645501137	888.7456055	-5.792431831	7.83062458	17.04645157	-8.855882645	1.0
47	7.345704556	913.0498047	-14.44926643	8.10483551	17.20297813	-8.492365837	1.0
48	7.951293945	939.0565186	-20.85149956	8.438375473	15.68892384	-7.973889828	1.0
49	10.224576	963.5089111	-24.11271858	8.320513725	12.76215553	-7.35910368	1.0
[Spine]
46	0	101.8159943	1.315000057	7.378847122	5.268512726	2.005216122	1.0
47	0	101.8159943	1.315000057	6.965669632	4.464000702	2.37059927	1.0
48	0	101.8159943	1.315000057	6.447158813	4.285793304	2.534181356	1.0
49	0	101.8159943	1.315000057	5.876733303	4.634794712	2.449398994	1.0
[Spine1]
46	0	100.8349991	-10.00800037	2.733319283	1.763681412	1.087153077	1.0
47	0	100.8349991	-10.00800037	2.536824226	1.1811409	1.24714005	1.0
48	0	100.8349991	-10.00800037	2.284590244	0.9066784382	1.354706049	1.0
49	0	100.8349991	-10.00800037	2.027621984	0.9293106794	1.387429118	1.0
[Spine2]
46	0	91	-13.73399925	2.699180365	1.794235587	1.09079206	1.0
47	0	91	-13.73399925	2.502521753	1.214189887	1.265173078	1.0
48	0	91	-13.73399925	2.247727394	0.9440351129	1.378883362	1.0
49	0	91	-13.73399925	1.988457918	0.9689881802	1.410706162	1.0
[Neck]
46	0	166.7169952	-25.16200066	5.299804211	-3.666212797	-2.027811766	1.0
47	0	166.7169952	-25.16200066	4.749998093	-3.189460993	-1.975097537	1.0
48	0	166.7169952	-25.16200066	4.499132156	-2.90225482	-1.668622851	1.0
49	0	166.7169952	-25.16200066	4.708361149	-2.786575317	-1.149472237	1.0
[Head]
46	0	96.17900085	16.84999847	-20.24227333	-18.80773544	17.72918701	1.0
47	0	96.17900085	16.84999847	-19.63550758	-17.28535271	16.70079613	1.0
48	0	96.17900085	16.84999847	-18.9389267	-15.89957619	15.36252213	1.0
49	0	96.17900085	16.84999847	-17.66380501	-14.74735737	13.60815716	1.0
[LeftEye]
46	30.6760006	64.09500122	92.83599854	0	0	0	1.0
47	30.6760006	64.09500122	92.83599854	0	0	0	1.0
48	30.6760006	64.09500122	92.83599854	0	0	0	1.0
49	30.6760006	64.09500122	92.83599854	0	0	0	1.0
[RightEye]
46	-30.6760006	64.09500122	92.83499908	0	0	0	1.0
47	-30.6760006	64.09500122	92.83499908	0	0	0	1.0
48	-30.6760006	64.09500122	92.83499908	0	0	0	1.0
49	-30.6760006	64.09500122	92.83499908	0	0	0	1.0
[LeftShoulder]
46	45.70400238	109.4599991	-26.28000069	5.463371754	-15.42265892	-16.59727669	1.0
47	45.70400238	109.4599991	-26.28000069	5.580877781	-16.81282806	-16.54431343	1.0
48	45.70400238	109.4599991	-26.28000069	5.495790005	-17.24894333	-15.84341717	1.0
49	45.70400238	109.4599991	-26.28000069	5.315479279	-16.94202614	-14.95427799	1.0
[LeftArm]
46	105.923996	-5.24600029	-22.32099915	3.527833223	-14.98517036	-55.06801987	1.0
47	105.923996	-5.24600029	-22.32099915	11.02318096	-18.10961151	-57.47663116	1.0
48	105.923996	-5.24600029	-22.32099915	16.84882355	-20.49655533	-58.04140091	1.0
49	105.923996	-5.24600029	-22.32099915	22.17679024	-21.60850525	-58.05069351	1.0
[LeftForeArm]
46	278.414978	-0.0009999999311	0	-1.023184154e-06	-27.32458496	-0.0002045498404	1.0
47	278.414978	-0.0009999999311	0	4.463024197e-06	-22.56422997	-0.0002171253873	1.0
48	278.414978	-0.0009999999311	0	2.943081654e-06	-22.17488289	-0.0001983385591	1.0
49	278.414978	-0.0009999999311	0	-9.120697655e-07	-23.5964222	-0.00019425762	1.0
[LeftHand]
46	283.2879944	0	0	-73.54949951	20.72934341	9.231350899	1.0
47	283.2879944	0	0	-71.67581177	12.76088333	3.408751249	1.0
48	283.2879944	0	0	-65.41205597	1.915399194	-0.4508462548	1.0
49	283.2879944	0	0	-56.75550461	-7.723058224	-3.894307613	1.0
[LeftHandThumb1]
46	24.6609993	-15.75	26.8239994	-0.487991184	2.204189301	4.819605827	1.0
47	24.6609993	-15.75	26.8239994	-0.483749181	2.214885235	4.823148251	1.0
48	24.6609993	-15.75	26.8239994	-0.4873627126	2.205505371	4.819900513	1.0
49	24.6609993	-15.75	26.8239994	-0.4904661775	2.197541475	4.81720686	1.0
[LeftHandThumb2]
46	32.29800034	-18.64699936	18.64699936	20.0409565	30.58318329	23.47493935	1.0
47	32.29800034	-18.64699936	18.64699936	21.01664543	31.21685791	23.85993004	1.0
48	32.29800034	-18.64699936	18.64699936	21.08958435	30.40684891	23.86702347	1.0
49	32.29800034	-18.64699936	18.64699936	20.31365013	28.78997612	23.33007813	1.0
[LeftHandThumb3]
46	26.52600098	-15.31499958	15.31499958	-13.10492611	6.168940067	8.570153236	1.0
47	26.52600098	-15.31499958	15.31499958	-13.16448498	5.916086197	8.874533653	1.0
48	26.52600098	-15.31499958	15.31499958	-13.19197941	5.797340393	8.907473564	1.0
49	26.52600098	-15.31499958	15.31499958	-13.14579868	5.974379539	8.666940689	1.0
[LeftHandThumb4]
46	19.54599953	-11.28499985	11.28499985	0	0	0	1.0
47	19.54599953	-11.28499985	11.28499985	0	0	0	1.0
48	19.54599953	-11.28499985	11.28499985	0	0	0	1.0
49	19.54599953	-11.28499985	11.28499985	0	0	0	1.0
[LeftHandIndex1]
46	91.09299469	-5.170999527	22.60099792	0.4642813802	2.460189104	-17.72764206	1.0
47	91.09299469	-5.170999527	22.60099792	0.6864321232	3.204001665	-18.25209236	1.0
48	91.09299469	-5.170999527	22.60099792	0.7687172294	3.088407278	-17.10169983	1.0
49	91.09299469	-5.170999527	22.60099792	0.682889998	2.393472195	-15.40204811	1.0
[LeftHandIndex2]
46	36.76399994	0	0	-0.2672451138	1.746858239	-17.39385986	1.0
47	36.76399994	0	0	-0.2700665593	1.7558496	-17.48637199	1.0
48	36.76399994	0	0	-0.2711790502	1.759393454	-17.52286148	1.0
49	36.76399994	0	0	-0.2708738148	1.758433938	-17.51294327	1.0
[LeftHandIndex3]
46	28.83100128	0	0	-0.05767793581	0.8190923929	-8.05574894	1.0
47	28.83100128	0	0	-0.05900001153	0.8284273148	-8.148198128	1.0
48	28.83100128	0	0	-0.05953054875	0.8321091533	-8.184674263	1.0
49	28.83100128	0	0	-0.05939049274	0.8311071396	-8.174759865	1.0
[LeftHandIndex4]
46	23.92700005	0	0	0	0	0	1.0
47	23.92700005	0	0	0	0	0	1.0
48	23.92700005	0	0	0	0	0	1.0
49	23.92700005	0	0	0	0	0	1.0
[LeftHandMiddle1]
46	95.33399963	0	0	-1.010246634	3.277813673	-18.79883385	1.0
47	95.33399963	0	0	-1.100797892	3.18032527	-20.05199242	1.0
48	95.33399963	0	0	-1.058042407	2.801662922	-19.4683075	1.0
49	95.33399963	0	0	-0.9847471118	2.424239159	-18.46558571	1.0
[LeftHandMiddle2]
46	36.98199844	0	0	-0.254358083	1.705223799	-16.966362	1.0
47	36.98199844	0	0	-0.2591300309	1.720756412	-17.12578583	1.0
48	36.98199844	0	0	-0.2607831061	1.726148725	-17.18106461	1.0
49	36.98199844	0	0	-0.2615930736	1.728775263	-17.20796204	1.0
[LeftHandMiddle3]
46	29.50900078	0	0	-0.2851707041	1.803052902	-17.9724865	1.0
47	29.50900078	0	0	-0.2902265489	1.818573594	-18.13267708	1.0
48	29.50900078	0	0	-0.2920242846	1.824074507	-18.18941689	1.0
49	29.50900078	0	0	-0.2929312885	1.826826215	-18.21787071	1.0
[LeftHandMiddle4]
46	28.3390007	0	0	0	0	0	1.0
47	28.3390007	0	0	0	0	0	1.0
48	28.3390007	0	0	0	0	0	1.0
49	28.3390007	0	0	0	0	0	1.0
[LeftHandRing1]
46	91.04499817	-0.4390000105	-18.65100098	-1.332231879	3.512872934	-23.08407593	1.0
47	91.04499817	-0.4390000105	-18.65100098	-1.414768934	3.799240828	-24.13308716	1.0
48	91.04499817	-0.4390000105	-18.65100098	-1.366671085	3.709186316	-23.51790047	1.0
49	91.04499817	-0.4390000105	-18.65100098	-1.318356991	3.342014313	-22.91027641	1.0
[LeftHandRing2]
46	31.54000092	0	0	-0.4038630426	2.134421587	-21.42724609	1.0
47	31.54000092	0	0	-0.4054382443	2.13841939	-21.46932411	1.0
48	31.54000092	0	0	-0.4011654556	2.127496004	-21.35408783	1.0
49	31.54000092	0	0	-0.3954063058	2.112736464	-21.19856644	1.0
[LeftHandRing3]
46	29.37700081	0	0	-0.2981357872	1.842556	-18.38055801	1.0
47	29.37700081	0	0	-0.2994532585	1.846522212	-18.42136765	1.0
48	29.37700081	0	0	-0.295765698	1.83540082	-18.30643845	1.0
49	29.37700081	0	0	-0.2908624411	1.820534945	-18.15289497	1.0
[LeftHandRing4]
46	26.47500038	0	0	0	0	0	1.0
47	26.47500038	0	0	0	0	0	1.0
48	26.47500038	0	0	0	0	0	1.0
49	26.47500038	0	0	0	0	0	1.0
[LeftHandPinky1]
46	80.77799988	-4.887000084	-38.06099701	-1.988627434	2.644909859	-29.21761703	1.0
47	80.77799988	-4.887000084	-38.06099701	-2.073295116	2.341672897	-29.94047546	1.0
48	80.77799988	-4.887000084	-38.06099701	-2.067411184	2.503688097	-29.94600487	1.0
49	80.77799988	-4.887000084	-38.06099701	-2.024983883	2.710853577	-29.62096596	1.0
[LeftHandPinky2]
46	36	0	0	-0.2873551846	1.809833646	-18.04237175	1.0
47	36	0	0	-0.2853531837	1.803661942	-17.97882652	1.0
48	36	0	0	-0.2810659707	1.790379047	-17.84191322	1.0
49	36	0	0	-0.2768659294	1.777300715	-17.70710754	1.0
[LeftHandPinky3]
46	21.14200211	0	0	-0.2595580816	1.722175598	-17.14031029	1.0
47	21.14200211	0	0	-0.2576331794	1.715941906	-17.07616997	1.0
48	21.14200211	0	0	-0.2535598576	1.702613592	-16.93951416	1.0
49	21.14200211	0	0	-0.2495838404	1.689516783	-16.80524635	1.0
[LeftHandPinky4]
46	19.75699997	0	0	0	0	0	1.0
47	19.75699997	0	0	0	0	0	1.0
48	19.75699997	0	0	0	0	0	1.0
49	19.75699997	0	0	0	0	0	1.0
[RightShoulder]
46	-45.70000076	109.4620056	-26.28000069	5.174079895	16.0179348	14.450284	1.0
47	-45.70000076	109.4620056	-26.28000069	5.468639374	16.00631905	15.57391739	1.0
48	-45.70000076	109.4620056	-26.28000069	5.583562374	15.94891167	15.95014381	1.0
49	-45.70000076	109.4620056	-26.28000069	5.546681404	16.26553535	15.52783585	1.0
[RightArm]
46	-105.9280014	-5.248000145	-22.32099915	13.67712879	26.80264473	44.25803757	1.0
47	-105.9280014	-5.248000145	-22.32099915	21.15020752	29.91596413	45.76357269	1.0
48	-105.9280014	-5.248000145	-22.32099915	29.28365326	31.20246506	47.43700027	1.0
49	-105.9280014	-5.248000145	-22.32099915	37.6176796	30.85152054	49.42927551	1.0
[RightForeArm]
46	-278.414978	0	0	-1.358787085e-05	19.57352448	1.278305945e-06	1.0
47	-278.414978	0	0	1.039532208e-06	29.60691071	-7.576792541e-06	1.0
48	-278.414978	0	0	-2.526781827e-06	39.37433624	-9.821563253e-06	1.0
49	-278.414978	0	0	4.722362064e-06	47.22883987	-1.881782396e-06	1.0
[RightHand]
46	-283.2879944	0	0.0009999999311	-43.22002029	3.471095324	1.048406243	1.0
47	-283.2879944	0	0.0009999999311	-28.3952198	7.399755955	4.672226906	1.0
48	-283.2879944	0	0.0009999999311	-14.76961708	9.319215775	8.052909851	1.0
49	-283.2879944	0	0.0009999999311	-6.216402531	10.99209785	10.94837189	1.0
[RightHandPinky1]
46	-80.76699829	-4.885000229	-38.06000137	-1.496455669	-4.072873116	23.51097679	1.0
47	-80.76699829	-4.885000229	-38.06000137	-1.497201085	-4.348326206	25.5712738	1.0
48	-80.76699829	-4.885000229	-38.06000137	-1.593574286	-4.868393898	28.18430328	1.0
49	-80.76699829	-4.885000229	-38.06000137	-1.842336297	-5.275016308	31.32123756	1.0
[RightHandPinky2]
46	-36	0	0.0009999999311	-0.04719550163	-0.6600884795	8.19750309	1.0
47	-36	0	0.0009999999311	-0.09226852655	-0.9210951924	11.46818638	1.0
48	-36	0	0.0009999999311	-0.1587710083	-1.203380704	15.05078411	1.0
49	-36	0	0.0009999999311	-0.2481544912	-1.49704361	18.84398079	1.0
[RightHandPinky3]
46	-21.14200211	0	0	-0.03755010664	-0.5891444087	7.2937994	1.0
47	-21.14200211	0	0	-0.0786447078	-0.8509126306	10.56585026	1.0
48	-21.14200211	0	0	-0.1408447921	-1.134409785	14.15093231	1.0
49	-21.14200211	0	0	-0.2256858051	-1.42943728	17.94408035	1.0
[RightHandPinky4]
46	-19.75699997	0	0	0	0	0	1.0
47	-19.75699997	0	0	0	0	0	1.0
48	-19.75699997	0	0	0	0	0	1.0
49	-19.75699997	0	0	0	0	0	1.0
[RightHandRing1]
46	-91.03599548	-0.4390000105	-18.65100098	-0.5127802491	-1.625282049	11.74420357	1.0
47	-91.03599548	-0.4390000105	-18.65100098	-0.6623755693	-1.750298381	14.36774349	1.0
48	-91.03599548	-0.4390000105	-18.65100098	-0.8458275795	-2.050121069	17.39184952	1.0
49	-91.03599548	-0.4390000105	-18.65100098	-1.096357226	-2.306681156	21.25133133	1.0
[RightHandRing2]
46	-31.54000092	0	0	-0.123942107	-1.065300703	13.27271748	1.0
47	-31.54000092	0	0	-0.1931565255	-1.325048447	16.59288979	1.0
48	-31.54000092	0	0	-0.280361414	-1.588732839	20.0245018	1.0
49	-31.54000092	0	0	-0.3904326558	-1.862677693	23.6735878	1.0
[RightHandRing3]
46	-29.37700081	0	0	-0.07375369221	-0.8240000606	10.22861767	1.0
47	-29.37700081	0	0	-0.1290273964	-1.086928129	13.5466671	1.0
48	-29.37700081	0	0	-0.2020073533	-1.354720592	16.97537613	1.0
49	-29.37700081	0	0	-0.2972950041	-1.634003282	20.6219635	1.0
[RightHandRing4]
46	-26.47500038	0	0	0	0	0	1.0
47	-26.47500038	0	0	0	0	0	1.0
48	-26.47500038	0	0	0	0	0	1.0
49	-26.47500038	0	0	0	0	0	1.0
[RightHandMiddle1]
46	-95.32500458	0	0	-0.1876809746	-1.284232974	5.434036732	1.0
47	-95.32500458	0	0	-0.3844178021	-1.273740411	9.362311363	1.0
48	-95.32500458	0	0	-0.6282951832	-1.025706887	13.79196072	1.0
49	-95.32500458	0	0	-0.9091578722	-0.7609058022	18.43710709	1.0
[RightHandMiddle2]
46	-36.98199844	0	0	-0.1647329479	-1.225364208	15.3129797	1.0
47	-36.98199844	0	0	-0.2178390622	-1.404893756	17.62573051	1.0
48	-36.98199844	0	0	-0.2733814418	-1.570068717	19.77869987	1.0
49	-36.98199844	0	0	-0.3442671895	-1.753966689	22.21380806	1.0
[RightHandMiddle3]
46	-29.50900078	0	0	-0.1871708632	-1.306517959	16.32909966	1.0
47	-29.50900078	0	0	-0.2434597313	-1.485117197	18.64243698	1.0
48	-29.50900078	0	0	-0.3020147085	-1.649521351	20.79850578	1.0
49	-29.50900078	0	0	-0.3762228489	-1.832220674	23.23519135	1.0
[RightHandMiddle4]
46	-28.3390007	0	0.0009999999311	0	0	0	1.0
47	-28.3390007	0	0.0009999999311	0	0	0	1.0
48	-28.3390007	0	0.0009999999311	0	0	0	1.0
49	-28.3390007	0	0.0009999999311	0	0	0	1.0
[RightHandIndex1]
46	-91.08300018	-5.167999744	22.60099792	0.08602561057	4.710536003	-0.1432237923	1.0
47	-91.08300018	-5.167999744	22.60099792	-0.01025667973	3.612066507	1.734739661	1.0
48	-91.08300018	-5.167999744	22.60099792	-0.09353281558	2.806268454	3.333816767	1.0
49	-91.08300018	-5.167999744	22.60099792	-0.1099009961	2.170703173	5.065254688	1.0
[RightHandIndex2]
46	-36.76399994	0	0	-0.08598321676	-0.8891086578	11.04660988	1.0
47	-36.76399994	0	0	-0.1429990828	-1.142458916	14.25400734	1.0
48	-36.76399994	0	0	-0.2093230188	-1.378744721	17.28596115	1.0
49	-36.76399994	0	0	-0.2895185053	-1.613775134	20.35428238	1.0
[RightHandIndex3]
46	-28.83100128	0	0	-0.002830671845	-0.1622358561	2.003444433	1.0
47	-28.83100128	0	0	-0.01822768152	-0.409313798	5.060146332	1.0
48	-28.83100128	0	0	-0.04464717209	-0.643897891	7.975373268	1.0
49	-28.83100128	0	0	-0.0846613422	-0.883237958	10.9721365	1.0
[RightHandIndex4]
46	-23.92700005	0	0	0	0	0	1.0
47	-23.92700005	0	0	0	0	0	1.0
48	-23.92700005	0	0	0	0	0	1.0
49	-23.92700005	0	0	0	0	0	1.0
[RightHandThumb1]
46	-24.64799881	-15.72700024	26.82600021	-1.956459284	0.5710756183	-3.945821047	1.0
47	-24.64799881	-15.72700024	26.82600021	-1.781029463	0.06478311121	-4.107226849	1.0
48	-24.64799881	-15.72700024	26.82600021	-1.683321834	-0.2172992676	-4.198007584	1.0
49	-24.64799881	-15.72700024	26.82600021	-1.650846124	-0.3111433685	-4.228436947	1.0
[RightHandThumb2]
46	-32.29800034	-18.64699936	18.64699936	17.59952164	-7.338012218	-34.7392807	1.0
47	-32.29800034	-18.64699936	18.64699936	18.17185211	-10.26669121	-31.62190056	1.0
48	-32.29800034	-18.64699936	18.64699936	18.49415398	-12.16905117	-29.24311447	1.0
49	-32.29800034	-18.64699936	18.64699936	18.59943771	-12.97078991	-28.03274345	1.0
[RightHandThumb3]
46	-26.52600098	-15.31399918	15.31399918	-18.77617264	0.9637900591	-24.5435257	1.0
47	-26.52600098	-15.31399918	15.31399918	-16.2617054	-4.673047066	-22.13801956	1.0
48	-26.52600098	-15.31399918	15.31399918	-15.05413818	-7.082615376	-19.66324043	1.0
49	-26.52600098	-15.31399918	15.31399918	-14.77814388	-7.31405735	-17.68673515	1.0
[RightHandThumb4]
46	-19.54599953	-11.28499985	11.28499985	0	0	0	1.0
47	-19.54599953	-11.28499985	11.28499985	0	0	0	1.0
48	-19.54599953	-11.28499985	11.28499985	0	0	0	1.0
49	-19.54599953	-11.28499985	11.28499985	0	0	0	1.0
[LeftUpLeg]
46	82.07800293	-67.51699829	-15.99599934	-55.88356018	13.79335117	6.79052639	1.0
47	82.07800293	-67.51699829	-15.99599934	-52.99277878	11.84917641	6.629882813	1.0
48	82.07800293	-67.51699829	-15.99599934	-49.07965469	11.39927578	6.294257164	1.0
49	82.07800293	-67.51699829	-15.99599934	-44.14987946	12.19389725	5.96656847	1.0
[LeftLeg]
46	0	-443.7049866	2.845999956	62.78377914	-6.001451492	-7.994353771	1.0
47	0	-443.7049866	2.845999956	56.36969376	-7.154210567	-6.808391571	1.0
48	0	-443.7049866	2.845999956	49.1006012	-7.94849205	-5.683036804	1.0
49	0	-443.7049866	2.845999956	41.78705215	-8.352079391	-4.655275345	1.0
[LeftFoot]
46	0	-444.2789917	-29.8219986	-16.93036079	-5.303311348	2.366947889	1.0
47	0	-444.2789917	-29.8219986	-13.59949589	-3.973519087	0.6825050712	1.0
48	0	-444.2789917	-29.8219986	-10.27918625	-2.36310339	-0.5850303173	1.0
49	0	-444.2789917	-29.8219986	-7.325708866	-0.6151710749	-1.471575141	1.0
[LeftToeBase]
46	0	-87.28699493	107.1060028	-4.92853117	8.734956509e-07	2.192557105e-07	1.0
47	0	-87.28699493	107.1060028	-4.928519726	-4.042323326e-06	-1.679632362e-07	1.0
48	0	-87.28699493	107.1060028	-4.928524017	3.029973186e-06	-1.595020223e-07	1.0
49	0	-87.28699493	107.1060028	-4.928528309	7.346146049e-06	-1.146849741e-06	1.0
[RightUpLeg]
46	-82.07800293	-67.51699829	-15.99599934	-39.56216431	-13.57013798	8.769983292	1.0
47	-82.07800293	-67.51699829	-15.99599934	-37.3754425	-14.86660767	8.377308846	1.0
48	-82.07800293	-67.51699829	-15.99599934	-34.45860291	-15.16954994	7.738923073	1.0
49	-82.07800293	-67.51699829	-15.99599934	-30.68643379	-14.54876328	6.946550846	1.0
[RightLeg]
46	0	-443.7049866	2.861999989	61.46400452	-7.875354767	-6.806974888	1.0
47	0	-443.7049866	2.861999989	55.59886932	-9.241391182	-5.518208027	1.0
48	0	-443.7049866	2.861999989	48.46623611	-10.13600063	-4.129050732	1.0
49	0	-443.7049866	2.861999989	40.85382843	-10.41909313	-3.036233664	1.0
[RightFoot]
46	0	-444.2770081	-29.83799934	-31.89219093	-13.98758316	13.46238708	1.0
47	0	-444.2770081	-29.83799934	-28.28425026	-13.83357239	10.89324856	1.0
48	0	-444.2770081	-29.83799934	-23.93088531	-13.15528679	8.279418945	1.0
49	0	-444.2770081	-29.83799934	-19.37268257	-12.00190353	6.073908329	1.0
[RightToeBase]
46	0	-87.28699493	107.1060028	-7.282883167	6.221810054e-06	2.813480933e-06	1.0
47	0	-87.28699493	107.1060028	-7.282883644	4.155748229e-06	4.512376677e-07	1.0
48	0	-87.28699493	107.1060028	-7.282876968	-2.703510518e-06	-7.802986488e-07	1.0
49	0	-87.28699493	107.1060028	-7.282874584	-6.740762615e-07	2.497391449e-07	1.0
[EndOfFile]
